<?xml version="1.0" encoding="UTF-8" standalone="no"?>
<!-- Created with Inkscape (http://www.inkscape.org/) -->

<svg
   version="1.1"
   id="svg1231"
   width="146.6181"
   height="146.74155"
   viewBox="0 0 146.6181 146.74155"
   sodipodi:docname="glo.png"
   xmlns:inkscape="http://www.inkscape.org/namespaces/inkscape"
   xmlns:sodipodi="http://sodipodi.sourceforge.net/DTD/sodipodi-0.dtd"
   xmlns="http://www.w3.org/2000/svg"
   xmlns:svg="http://www.w3.org/2000/svg">
  <defs
     id="defs1235" />
  <sodipodi:namedview
     id="namedview1233"
     pagecolor="#ffffff"
     bordercolor="#000000"
     borderopacity="0.25"
     inkscape:showpageshadow="2"
     inkscape:pageopacity="0.0"
     inkscape:pagecheckerboard="0"
     inkscape:deskcolor="#d1d1d1"
     showgrid="false" />
  <g
     inkscape:groupmode="layer"
     inkscape:label="Image"
     id="g1237"
     transform="translate(-67.80526,-91.581429)">
    <path
       style="fill:#ffffff;fill-opacity:1"
       d="m 129.42561,237.47791 c -28.30243,-4.05499 -52.108618,-25.94732 -59.439978,-54.66141 -7.00009,-27.41665 3.21116,-57.54707 25.51849,-75.29754 12.520278,-9.962693 29.983098,-15.937529 46.581048,-15.937529 28.60617,0 56.26498,18.354799 67.05695,44.499999 4.64563,11.25475 5.28353,14.75754 5.28124,29 -0.002,15.3162 -1.10805,20.64095 -6.64254,31.99186 -6.41576,13.15836 -18.98554,26.38007 -31.30838,32.93218 -13.45912,7.15629 -30.43469,9.85251 -47.04683,7.47244 z m -10.0444,-35.26906 c 2.17557,-1.17008 5.32557,-4.0774 7,-6.46071 l 3.0444,-4.3333 0.30052,-23.9167 0.30051,-23.91671 h -4.05051 -4.05052 v 10.54966 c 0,11.96131 -1.15609,15.35529 -6.29855,18.49082 -4.91108,2.99447 -9.67488,2.55887 -14.12967,-1.29199 -3.063038,-2.64779 -3.857348,-4.1024 -4.277978,-7.83428 -0.5985,-5.30984 1.35594,-9.98338 5.238958,-12.52763 2.52043,-1.65145 10.70404,-1.60148 14.71724,0.0899 2.69828,1.13718 2.5208,-6.99356 -0.18426,-8.44127 -3.22442,-1.72565 -12.75554,-1.23512 -16.85558,0.8675 -14.084478,7.22294 -15.088928,26.90493 -1.824798,35.75654 5.569298,3.71659 14.410168,4.35898 19.984598,1.45211 l 3.86996,-2.01805 -0.45407,5.47549 c -0.52065,6.27838 -4.02118,10.92094 -9.24829,12.26548 -2.33708,0.60115 -3.11241,1.42164 -3.36213,3.55801 -0.72037,6.16266 1.91302,6.73522 10.28017,2.23516 z m 26.5444,-48.68779 V 124.4607 l -3.75,0.31036 -3.75,0.31037 -0.2665,27.48581 c -0.14658,15.11719 -0.0482,28.05469 0.21861,28.75 0.26682,0.6953 2.07424,1.26419 4.01651,1.26419 h 3.53138 z m 38.39764,26.02053 c 1.99915,-1.35309 4.86501,-4.22151 6.36859,-6.37428 2.36671,-3.38857 2.73377,-4.88701 2.73377,-11.15997 0,-6.4569 -0.33118,-7.71749 -3.04159,-11.5774 -4.23366,-6.02917 -9.50979,-8.81149 -16.74825,-8.83206 -12.30945,-0.035 -20.71016,8.31944 -20.71016,20.59603 0,6.9697 3.05214,12.80096 8.68677,16.59653 5.31455,3.57995 6.03029,3.77208 12.94465,3.47487 4.56109,-0.19606 7.06232,-0.89364 9.76622,-2.72372 z m -17.03093,-6.87822 c -4.38732,-2.67526 -6.36671,-5.89432 -6.36671,-10.35411 0,-8.1963 4.55702,-12.72783 12.79943,-12.72783 4.55319,0 5.78082,0.4264 8.20395,2.84954 10.26981,10.2698 -2.3551,27.72134 -14.63667,20.2324 z"
       id="path1358"
       inkscape:export-filename="glo.svg"
       inkscape:export-xdpi="96"
       inkscape:export-ydpi="96" />
  </g>
</svg>
